Coordinates
version=1
nRows=11
nColumns=36
inDegrees=yes

Units are S.I. units (second, meters, Newtons, ...)
If the header above contains a line with 'inDegrees', this indicates whether rotational values are in degrees (yes) or radians (no).

endheader
time	pelvis_tilt	pelvis_list	pelvis_rotation	pelvis_tx	pelvis_ty	pelvis_tz	hip_flexion_r	hip_adduction_r	hip_rotation_r	knee_angle_r	knee_angle_r_beta	ankle_angle_r	subtalar_angle_r	mtp_angle_r	hip_flexion_l	hip_adduction_l	hip_rotation_l	knee_angle_l	knee_angle_l_beta	ankle_angle_l	subtalar_angle_l	mtp_angle_l	lumbar_extension	lumbar_bending	lumbar_rotation	arm_flex_r	arm_add_r	arm_rot_r	elbow_flex_r	pro_sup_r	arm_flex_l	arm_add_l	arm_rot_l	elbow_flex_l	pro_sup_l
     14.93333330	     -4.68521554	     -2.30062518	     -3.88492662	      0.55661266	      0.87816757	      0.72946092	     32.24451246	      3.04775508	     -7.53266049	     11.66734300	      0.20363355	      9.09031626	     -4.75992546	     -7.49999987	     -9.78388421	     -2.42446808	     -4.96845569	     20.43658734	      0.35668574	     12.11317808	     -8.80557835	     -7.49999987	      2.56029245	      0.37961248	     -5.90790864	    -13.34798288	    -11.72132588	     -8.30725430	     23.20358271	     78.73887326	     23.36329997	    -13.46424344	      6.16735034	     45.07157674	     77.88332001
     14.95000000	     -4.48239434	     -3.25820430	     -3.69397278	      0.55891517	      0.88113731	      0.72839536	     31.58346816	      4.19547040	     -7.19952664	     13.74074725	      0.23982128	      7.20729991	     -5.95255135	     -7.49999987	    -10.04164491	     -3.71894127	     -5.59838753	     23.37150534	      0.40790972	      8.81874855	     -9.39013638	     -7.49999987	      2.53183741	      1.67588747	     -5.44442669	    -13.70101407	    -12.32295634	     -8.38670584	     23.98752880	     78.58808334	     22.80664104	    -11.99991937	      5.67933455	     45.03696786	     78.41058473
     14.96666670	     -4.01659216	     -4.02361085	     -3.42856265	      0.56084606	      0.88759323	      0.72800075	     30.60286861	      5.07516306	     -6.83786580	     15.45400259	      0.26972323	      5.78477921	     -6.68272810	     -7.49999987	     -9.95406580	     -4.84844889	     -5.97973487	     26.85482314	      0.46870508	      4.10974896	    -10.05989951	     -7.49999987	      2.08567007	      2.81529891	     -4.99031518	    -13.80855778	    -12.73301470	     -8.45631591	     24.69625467	     77.93507526	     22.12944924	    -10.56582743	      5.30634682	     44.44173492	     78.17650598
     14.98333330	     -3.51661047	     -4.66774957	     -3.30618406	      0.56433764	      0.89400774	      0.73050657	     29.43530773	      5.95448064	     -6.15056692	     16.78565510	      0.29296495	      4.56016495	     -8.14981767	     -7.49999987	     -9.30974147	     -6.04524988	     -6.55305545	     31.05292588	      0.54197580	     -1.65517827	     -9.87670164	     -7.49999987	      1.68983092	      3.83082034	     -4.49545779	    -13.34888516	    -12.90833051	     -8.44892844	     24.20811624	     77.62593015	     20.94908018	     -9.30439216	      5.02195761	     43.35209064	     78.52740473
     15.00000000	     -2.92763509	     -5.33972595	     -3.04084368	      0.56997748	      0.89819849	      0.73564695	     28.00157345	      6.76287025	     -6.07923447	     17.87667334	      0.31200681	      3.99723342	     -9.16338039	     -7.49999987	     -8.26072538	     -7.33915343	     -6.53003095	     35.72469257	      0.62351351	     -8.25830938	     -9.88520590	     -7.49999987	      1.15379705	      4.84023417	     -4.15497716	    -13.09487225	    -12.89147397	     -8.60281720	     24.57275107	     77.83111619	     19.45415110	     -8.38016126	      4.90128669	     42.07987078	     78.88413085
     15.01666670	     -2.45856109	     -6.09490598	     -2.76879309	      0.57745822	      0.89859104	      0.74207234	     26.50254890	      7.65591773	     -6.34663345	     18.76978958	      0.32759463	      3.87503548	     -9.98840619	     -7.49999987	     -6.92803810	     -8.69849543	     -6.23664076	     40.29312083	      0.70324762	    -13.57760954	     -9.38939139	     -7.49999987	      0.80078320	      5.84483090	     -3.67202538	    -13.14121154	    -12.72767108	     -8.75289075	     25.05426447	     77.87661021	     17.75690776	     -7.64977198	      4.89950221	     40.75888652	     79.02269888
     15.03333330	     -1.95606683	     -6.57112958	     -2.65596555	      0.58377279	      0.89975143	      0.74821029	     24.90729311	      8.35751011	     -6.39212307	     19.69690692	      0.34377588	      4.17799596	    -10.46830948	     -7.49999987	     -5.72820483	     -9.61050791	     -5.92983579	     44.14107700	      0.77040713	    -16.76964212	     -8.65846850	     -7.49999987	      0.38150381	      6.30022609	     -3.03985169	    -13.08260781	    -12.27747514	     -8.77189994	     25.42902458	     77.84615448	     15.95355052	     -7.38092942	      4.95645012	     39.75689480	     79.01606500
     15.05000000	     -1.88241558	     -7.26091165	     -2.07448322	      0.58849183	      0.89827787	      0.75142495	     23.50691496	      9.08365901	     -6.86292440	     20.18344194	      0.35226752	      4.21146324	    -11.89642478	     -7.49999987	     -3.49693501	    -10.57333381	     -4.70381322	     48.03324886	      0.83833834	    -18.15417540	     -9.76762111	     -7.49999987	      0.72760689	      7.24458150	     -1.25975781	    -15.64764116	    -11.24068494	    -13.05898855	     29.01505332	     78.14227725	     16.02248856	     -6.06915397	      6.44864523	     34.51587807	     81.13561671
     15.06666670	     -1.79270398	     -7.46431439	     -1.82457101	      0.58935040	      0.89767384	      0.75496303	     22.01137683	      9.44312691	     -6.91628459	     20.52916995	      0.35830161	      5.09459717	    -12.54590167	     -7.49999987	     -0.94757822	    -10.99507906	     -3.89940205	     51.47670354	      0.89843796	    -17.25517603	    -10.73389361	     -7.49999987	      0.93848405	      7.52450224	     -0.97393429	    -14.86615650	    -10.73897358	    -13.00002625	     28.31505136	     78.43439127	     14.37710230	     -6.10371980	      6.43654277	     32.18486873	     80.95563688
     15.08333330	     -1.66128939	     -7.36606109	     -1.68534353	      0.58580177	      0.90139101	      0.76003663	     20.24285021	      9.52340884	     -6.96400508	     20.31968324	      0.35464538	      6.31479208	    -12.68093441	     -7.49999987	      1.88678517	    -11.00345812	     -3.24121452	     54.29829165	      0.94768397	    -14.55218262	    -12.33568127	     -7.49999987	      0.92908048	      7.49715752	     -0.76203360	    -13.19681820	    -10.22642251	    -12.55783695	     27.03988773	     78.96391604	     12.78818949	     -6.42537443	      6.53995344	     29.74067777	     80.93240348
     15.10000000	     -1.57021006	     -7.07046540	     -1.75906592	      0.58025047	      0.90777306	      0.76592093	     18.24324981	      9.49489984	     -6.88787504	     19.48845460	      0.34013770	      7.59856040	    -12.31636063	     -7.49999987	      4.87675887	    -10.75030941	     -2.97116718	     56.39044254	      0.98419889	    -10.63070643	    -14.27563842	     -7.49999987	      0.83973223	      7.26291788	     -0.55449529	    -10.71600715	     -9.80808132	    -11.82107998	     25.60241008	     79.59515663	     11.18197976	     -6.94203709	      6.69402152	     27.36852135	     80.96873990
